<?xml version="1.0" standalone="no"?>
<!DOCTYPE svg PUBLIC "-//W3C//DTD SVG 20010904//EN"
 "http://www.w3.org/TR/2001/REC-SVG-20010904/DTD/svg10.dtd">
<svg version="1.0" xmlns="http://www.w3.org/2000/svg"
 width="300.000000pt" height="300.000000pt" viewBox="0 0 300.000000 300.000000"
 preserveAspectRatio="xMidYMid meet">
<metadata>
Created by potrace 1.11, written by Peter Selinger 2001-2013
</metadata>
<g transform="translate(0.000000,300.000000) scale(0.100000,-0.100000)"
fill="#000000" stroke="none">
<path d="M0 2640 l0 -360 43 -1 c173 -2 671 1 674 5 4 4 7 575 4 694 l-1 22
-360 0 -360 0 0 -360z"/>
<path d="M760 2640 l0 -360 28 -1 c118 -2 685 0 687 3 5 5 6 133 6 451 l-1
267 -360 0 -360 0 0 -360z"/>
<path d="M1519 2988 c-3 -71 1 -701 5 -705 3 -4 540 -7 684 -4 l32 1 0 360 0
360 -360 0 c-281 0 -360 -3 -361 -12z"/>
<path d="M0 1880 l0 -360 23 0 c215 -3 690 0 694 3 2 3 5 164 5 359 l0 353
-361 3 -361 2 0 -360z"/>
<path d="M2279 2188 c-1 -191 1 -661 4 -664 3 -4 224 -5 565 -4 l152 0 0 360
0 360 -360 0 -360 0 -1 -52z"/>
<path d="M52 1482 l-52 -3 0 -360 0 -359 360 0 c281 0 360 3 361 13 3 67 0
700 -3 703 -6 5 -590 10 -666 6z"/>
<path d="M2288 1479 c-8 -5 -11 -247 -8 -676 l0 -43 360 0 360 0 0 360 0 360
-47 0 c-505 4 -657 4 -665 -1z"/>
<path d="M793 722 l-33 -3 0 -360 0 -359 360 0 360 0 0 33 c3 136 -1 682 -4
685 -5 4 -638 8 -683 4z"/>
<path d="M1523 717 c-4 -7 -5 -190 -4 -589 l1 -128 360 0 360 0 0 360 0 360
-27 1 c-225 4 -686 2 -690 -4z"/>
<path d="M2288 719 c-8 -5 -14 -496 -8 -701 0 -17 24 -18 360 -18 l360 0 0
360 0 360 -37 1 c-255 4 -667 3 -675 -2z"/>
</g>
</svg>
