<?xml version="1.0" standalone="no"?>
<!DOCTYPE svg PUBLIC "-//W3C//DTD SVG 20010904//EN"
 "http://www.w3.org/TR/2001/REC-SVG-20010904/DTD/svg10.dtd">
<svg version="1.0" xmlns="http://www.w3.org/2000/svg"
 width="700.000000pt" height="700.000000pt" viewBox="0 0 700.000000 700.000000"
 preserveAspectRatio="xMidYMid meet">
<metadata>
Created by potrace 1.11, written by Peter Selinger 2001-2013
</metadata>
<g transform="translate(0.000000,700.000000) scale(0.100000,-0.100000)"
fill="#000000" stroke="none">
<path d="M3397 6304 c-1 -1 -47 -5 -102 -8 -541 -37 -1063 -236 -1503 -573
-115 -88 -139 -110 -282 -253 -148 -148 -230 -248 -349 -426 -191 -286 -355
-680 -407 -974 -4 -25 -8 -47 -9 -50 -2 -11 -25 -147 -29 -180 -19 -129 -24
-372 -12 -540 6 -85 30 -277 41 -325 1 -5 5 -28 10 -50 4 -22 14 -65 22 -95 8
-30 16 -62 18 -70 15 -64 71 -227 110 -321 253 -620 736 -1143 1336 -1444 264
-133 605 -240 863 -270 28 -4 52 -8 55 -10 12 -7 260 -19 371 -18 628 7 1221
218 1722 615 136 107 352 326 462 468 224 291 383 606 489 970 20 70 64 280
72 345 3 28 8 64 10 80 30 231 22 535 -20 794 -97 589 -398 1151 -841 1570
-221 209 -507 401 -774 519 -94 42 -300 119 -348 131 -21 5 -62 16 -93 25 -60
16 -237 52 -304 61 -23 3 -50 7 -60 9 -57 11 -438 27 -448 20z m346 -178 c26
-4 71 -9 100 -12 168 -18 439 -89 632 -165 299 -117 613 -319 844 -542 327
-317 557 -686 691 -1102 85 -268 124 -514 124 -800 0 -122 -11 -322 -19 -335
-2 -3 -6 -32 -9 -65 -11 -100 -66 -322 -113 -460 -39 -111 -141 -349 -163
-380 -4 -5 -22 -37 -40 -70 -18 -33 -69 -114 -114 -179 -447 -656 -1178 -1082
-1966 -1143 -158 -12 -443 -6 -535 11 -11 2 -45 7 -75 11 -30 3 -71 11 -90 15
-19 5 -51 12 -70 15 -115 19 -424 120 -508 165 -9 5 -69 34 -132 65 -63 32
-127 66 -141 76 -15 10 -31 19 -35 19 -4 0 -15 7 -25 16 -10 9 -31 23 -47 32
-17 9 -43 27 -59 39 -15 12 -66 50 -113 85 -47 34 -151 128 -231 208 -293 292
-478 576 -621 955 -166 440 -205 944 -113 1440 4 17 15 66 26 110 129 514 417
991 801 1326 40 35 77 69 83 75 12 14 185 140 240 175 102 65 128 80 216 126
205 107 467 202 659 239 14 2 59 11 100 19 89 17 132 22 260 31 52 4 96 8 97
9 5 4 299 -4 346 -9z"/>
</g>
</svg>
