<?xml version="1.0" encoding="UTF-8" standalone="no"?>
<!-- Created with Inkscape (http://www.inkscape.org/) -->

<svg
   xmlns:dc="http://purl.org/dc/elements/1.1/"
   xmlns:cc="http://creativecommons.org/ns#"
   xmlns:rdf="http://www.w3.org/1999/02/22-rdf-syntax-ns#"
   xmlns:svg="http://www.w3.org/2000/svg"
   xmlns="http://www.w3.org/2000/svg"
   xmlns:sodipodi="http://sodipodi.sourceforge.net/DTD/sodipodi-0.dtd"
   xmlns:inkscape="http://www.inkscape.org/namespaces/inkscape"
   width="200"
   height="100"
   viewBox="0 0 52.916665 26.458334"
   version="1.1"
   id="svg8"
   inkscape:version="0.92.4 (5da689c313, 2019-01-14)"
   sodipodi:docname="logo.svg">
  <defs
     id="defs2" />
  <sodipodi:namedview
     id="base"
     pagecolor="#ffffff"
     bordercolor="#666666"
     borderopacity="1.0"
     inkscape:pageopacity="0.0"
     inkscape:pageshadow="2"
     inkscape:zoom="2.8"
     inkscape:cx="75.03239"
     inkscape:cy="37.575296"
     inkscape:document-units="mm"
     inkscape:current-layer="layer1"
     showgrid="true"
     units="px"
     showguides="true"
     inkscape:guide-bbox="true"
     inkscape:window-width="1920"
     inkscape:window-height="1001"
     inkscape:window-x="-9"
     inkscape:window-y="-9"
     inkscape:window-maximized="1">
    <inkscape:grid
       type="xygrid"
       id="grid879"
       spacingx="6.6145833"
       spacingy="5.2916666" />
  </sodipodi:namedview>
  <metadata
     id="metadata5">
    <rdf:RDF>
      <cc:Work
         rdf:about="">
        <dc:format>image/svg+xml</dc:format>
        <dc:type
           rdf:resource="http://purl.org/dc/dcmitype/StillImage" />
        <dc:title />
      </cc:Work>
    </rdf:RDF>
  </metadata>
  <g
     inkscape:label="Layer 1"
     inkscape:groupmode="layer"
     id="layer1"
     transform="translate(0,-270.54165)">
    <path
       inkscape:connector-curvature="0"
       id="path881"
       style="font-style:normal;font-variant:normal;font-weight:normal;font-stretch:normal;font-size:19.75555611px;line-height:4.25;font-family:Fahkwang;-inkscape-font-specification:Fahkwang;letter-spacing:1.05833328px;word-spacing:0px;fill:#dedede;fill-opacity:1;stroke:none;stroke-width:0.1;stroke-opacity:1;stroke-miterlimit:4;stroke-dasharray:none"
       d="m 1.77,274.94009 h 2.0545778 v 12.88063 H 11.45869 v 0.94826 H 1.77 Z"
       sodipodi:nodetypes="ccccccc" />
    <path
       inkscape:connector-curvature="0"
       id="path883"
       style="font-style:normal;font-variant:normal;font-weight:normal;font-stretch:normal;font-size:19.75555611px;line-height:4.25;font-family:Fahkwang;-inkscape-font-specification:Fahkwang;letter-spacing:1.05833328px;word-spacing:0px;fill:#dedede;fill-opacity:1;stroke:none;stroke-width:0.1;stroke-opacity:1;stroke-miterlimit:4;stroke-dasharray:none"
       d="m 19.138911,288.96654 q -1.936044,0 -3.042355,-0.98778 Q 15.01,286.97123 15.01,285.21298 v -6.12422 h 1.817511 v 6.32178 q 0,1.32362 0.691445,2.03482 0.7112,0.7112 2.015066,0.7112 1.501423,0 2.410178,-0.96802 0.928511,-0.98778 0.928511,-2.58798 v -5.5118 h 1.817511 v 9.68022 H 22.872711 V 287.07 q -0.474133,0.889 -1.461911,1.40265 -0.987778,0.49389 -2.271889,0.49389 z" />
    <path
       inkscape:connector-curvature="0"
       id="path885"
       style="font-style:normal;font-variant:normal;font-weight:normal;font-stretch:normal;font-size:19.75555611px;line-height:4.25;font-family:Fahkwang;-inkscape-font-specification:Fahkwang;letter-spacing:1.05833328px;word-spacing:0px;fill:#dedede;fill-opacity:1;stroke:none;stroke-width:0.1;stroke-opacity:1;stroke-miterlimit:4;stroke-dasharray:none"
       d="m 38.56809,279.32583 q -0.651934,-0.29634 -1.501423,-0.29634 -0.928511,0 -1.580444,0.25683 1.027289,0.39511 1.580444,1.12606 0.553156,0.73096 0.553156,1.75825 0,1.4224 -1.145822,2.39042 -1.126067,0.94827 -3.417712,1.02729 -0.869244,0.0395 -1.461911,0.25682 -0.592666,0.19756 -0.592666,0.49389 0,0.25682 0.375355,0.39511 0.395111,0.11853 0.987778,0.11853 h 0.849489 q 2.449689,0 3.773311,0.69145 1.343378,0.67169 1.343378,1.93604 0,0.94827 -0.691445,1.63971 -0.671689,0.7112 -1.936044,1.08656 -1.2446,0.39511 -2.904067,0.39511 -1.580444,0 -2.765778,-0.33584 -1.165578,-0.31609 -1.817511,-0.90876 -0.632178,-0.57291 -0.632178,-1.34338 0,-0.82973 0.790223,-1.38289 0.790222,-0.57291 2.449689,-0.79022 -0.908756,-0.11853 -1.343378,-0.45438 -0.434623,-0.3556 -0.434623,-0.82973 0,-0.47413 0.5334,-0.84949 0.5334,-0.37535 1.402645,-0.47413 -1.323622,-0.3556 -1.975556,-1.14582 -0.632177,-0.79023 -0.632177,-1.93605 0,-1.48167 1.264355,-2.37067 1.264356,-0.889 3.358445,-0.889 0.908755,0 1.580444,0.13829 0.5334,-0.49389 1.224845,-0.75071 0.691444,-0.25682 1.461911,-0.25682 0.790222,0 1.303867,0.1778 z m -5.571067,5.43277 q 1.363133,0 2.094089,-0.63217 0.730955,-0.65194 0.730955,-1.89654 0,-1.22484 -0.730955,-1.87677 -0.730956,-0.65194 -2.094089,-0.65194 -1.343378,0 -2.074334,0.65194 -0.730955,0.65193 -0.730955,1.87677 0,1.2446 0.7112,1.89654 0.730955,0.63217 2.094089,0.63217 z m 0.395111,3.2004 q -2.074334,0 -3.239911,0.5334 -1.165578,0.51365 -1.165578,1.4224 0,0.86925 1.047044,1.40265 1.047045,0.55315 2.785534,0.55315 1.817511,0 2.904066,-0.63217 1.106312,-0.63218 1.106312,-1.61996 0,-0.82973 -0.948267,-1.2446 -0.928511,-0.41487 -2.4892,-0.41487 z" />
    <path
       inkscape:connector-curvature="0"
       id="path887"
       style="font-style:normal;font-variant:normal;font-weight:normal;font-stretch:normal;font-size:19.75555611px;line-height:4.25;font-family:Fahkwang;-inkscape-font-specification:Fahkwang;letter-spacing:1.05833328px;word-spacing:0px;fill:#dedede;fill-opacity:1;stroke:none;stroke-width:0.1;stroke-opacity:1;stroke-miterlimit:4;stroke-dasharray:none"
       d="m 41.48,275.27594 h 1.817511 v 5.66984 q 0.513644,-0.96802 1.521178,-1.50142 1.027289,-0.55316 2.3114,-0.55316 1.896533,0 2.943578,0.94827 1.0668,0.92851 1.0668,2.60773 v 6.32178 h -1.817512 v -6.49958 q 0,-1.22484 -0.671688,-1.89653 -0.671689,-0.67169 -1.916289,-0.67169 -1.560689,0 -2.508956,1.02729 -0.928511,1.02729 -0.928511,2.70651 v 5.334 H 41.48 Z" />
  </g>
</svg>
